<svg><defs><font id="iconfont" horiz-adv-x="1024"><font-face font-family="iconfont" font-weight="500" units-per-em="1024" ascent="896" descent="-128"/><glyph glyph-name="delete" unicode="" d="M838.4 555.6V179.4C838.4 71.5 751-16 643.1-16H380.9C273-16 185.6 71.4 185.6 179.3v376.3h-52.4c-19.4 0-35.1 15.7-35.1 35.1 0 19.4 15.7 35.1 35.1 35.1h757.6c19.4 0 35.1-15.7 35.1-35.1 0-19.4-15.7-35.1-35.1-35.1h-52.4zm-582.7 0V179.4c0-69.1 56.1-125.2 125.2-125.2h262.2c69.1 0 125.2 56.1 125.2 125.2v376.2H255.7zm131.8-124.7c0 19.4 15.7 35.1 35.1 35.1 19.4 0 35.1-15.7 35.1-35.1V181.4c0-19.4-15.7-35.1-35.1-35.1-19.4 0-35.1 15.7-35.1 35.1v249.5zm179 0c0 19.4 15.7 35.1 35.1 35.1 19.4 0 35.1-15.7 35.1-35.1V181.4c0-19.4-15.7-35.1-35.1-35.1-19.4 0-35.1 15.7-35.1 35.1v249.5zM430.5 784h163c19.4 0 35.1-15.7 35.1-35.1s-15.7-35.1-35.1-35.1h-163c-19.4 0-35.1 15.7-35.1 35.1s15.7 35.1 35.1 35.1z" horiz-adv-x="1024"/><glyph glyph-name="wechat" unicode="" d="M715.3 553c-23.8 4.1-48.5 6.3-73.9 6.3-185.1 0-335.7-115.9-335.7-258.5 0-33.9 8.5-66.3 24-96-21.5 3.7-42.2 9.1-62 16.3l-100.1-57.9c-2.9-1.7-18.7-.7-22.4 2.7-6.1 5.8-7.6 14.9-3.9 22.5l39.1 79.1C106 322.2 63.6 401 63.6 486c0 158.3 148.5 287 331 287 147.3 0 274.7-82.1 316.9-204.4.8-2.1 2.3-8.2 3.8-15.6zm-412.7 20.3c18.6 0 33.6 15 33.6 33.5s-15.1 33.5-33.6 33.5-33.6-15-33.6-33.5 15-33.5 33.6-33.5zm164.3 0c18.6 0 33.6 15 33.6 33.5s-15.1 33.5-33.6 33.5c-18.6 0-33.6-15-33.6-33.5s15-33.5 33.6-33.5zM857.1-5c-3.1 0-6.3.7-9.3 2.2L745.4 49c-31.1-8.1-62.9-12.2-94.9-12.2-170.8 0-309.8 112.4-309.8 250.7s138.9 250.7 309.8 250.7 309.8-112.4 309.8-250.7c0-74.5-41.6-145.5-112.1-192.9l28-71c3.2-8 1.1-17.3-5.2-23.1-3.8-3.6-8.8-5.5-13.9-5.5zM538.7 338.5c18.6 0 33.6 15 33.6 33.5s-15.1 33.5-33.6 33.5c-18.6 0-33.6-15-33.6-33.5s15-33.5 33.6-33.5zm205.3 0c18.6 0 33.6 15 33.6 33.5s-15.1 33.5-33.6 33.5c-18.6 0-33.6-15-33.6-33.5s15.1-33.5 33.6-33.5z" horiz-adv-x="1024"/><glyph glyph-name="weibo" unicode="" d="M416.7 75.9c145.7 6.7 263.6 98.7 263.6 196.8 0 98-117.9 158.6-263.6 151.8-145.6-6.8-263.3-85.5-263.3-183.7 0-98 117.7-171.7 263.3-164.9zm310 318.6c34.7-7 143.8-58 83.8-186.9-60-128.7-258-191.3-404.7-179.7C266.5 39 87.2 85.7 68.7 256c0 0-9.8 77.1 64.3 176.9 0 0 106.5 150.2 230.6 193 124.2 42.7 138.7-29.5 138.7-72.2-6.6-36.2-19-57.5 27.7-42.9 0 0 122.1 57.2 172.3 6.5 40.5-40.9 6.7-97.2 6.7-97.2s-16.8-18.8 17.7-25.6zm-285-153.7c9.1 7.2 12.6 19.8 7.6 28.1-4.9 8.2-16.2 10.5-27 2.4-9.4-6.9-11.3-20-6.2-28.2 4.9-8.3 16.3-9.3 25.6-2.3zm-86.3-74.3c27.2 3.1 49.4 24.4 49.4 47.4 0 23.1-20.4 41.4-51.8 38.3-27.4-2.9-46.9-26.9-46.9-49.9-.1-23.1 21.9-39 49.3-35.8zm36.9 194.4C539 378.1 565.1 236.7 520.5 178.6 475.9 120.5 387.7 92.1 302 139c-40.8 22.3-39.3 66.2-39.3 66.2s-16.9 138.4 129.6 155.7zm404.1 91.4c-13.3 0-24.2 10.7-24.2 24.2 0 0 23.7 108.5-83.8 84.5-13.3 0-23.9 10.8-23.9 24.2 0 13.5 10.7 24.4 23.9 24.4 0 0 149.6 27.9 131.8-134.4 0-1-.1-1.7-.3-2.6-1.7-11.4-11.7-20.3-23.5-20.3zM779 735.7c92.6-21.8 219.7-112.1 162.5-304.4h-.2c-3.9-27.5-17.4-29.7-33.6-29.7-19.2 0-34.8 12.2-34.8 31.7 0 16.8 6.9 34 6.9 34 2 7.1 18.3 51.1-10.7 117-53.3 90.2-160.4 91.5-173.1 86.4-12.8-5.1-31.6-7.6-31.6-7.6-19.4 0-34.9 15.9-34.9 35.3 0 16.2 10.7 30 25.4 34.1 0 0 .3.5.8.7 1.1.2 2.1 1.3 3.3 1.4 15 2.8 68.2 13.3 120 1.1z" horiz-adv-x="1024"/><glyph glyph-name="download" unicode="" d="M288.2 831.6h447.6c61.8 0 111.9-50.1 111.9-111.9V48.4c0-61.8-50.1-111.9-111.9-111.9H288.2c-61.8 0-111.9 50.1-111.9 111.9v671.3c0 61.8 50.1 111.9 111.9 111.9zm0-56c-30.9 0-55.9-25-55.9-55.9V48.4c0-30.9 25-55.9 55.9-55.9h447.6c30.9 0 55.9 25 55.9 55.9v671.3c0 30.9-25 55.9-55.9 55.9H288.2zm195.9-391.7v233.2c0 15.4 12.5 28 28 28h2.8c15.4 0 28-12.5 28-28V385.6l76.3 41.6c13.1 7.2 29.5 2.8 37.3-10l.8-1.3c7.7-12.7 3.7-29.2-8.9-36.9-.4-.2-.7-.4-1.1-.6L525.7 312c-4.3-2.4-9-3.5-13.7-3.4-4.6 0-9.3 1.1-13.7 3.4l-121.5 66.3c-13 7.1-17.8 23.4-10.7 36.5.2.4.4.8.6 1.1l.8 1.3c7.8 12.7 24.2 17.1 37.3 10l79.3-43.3zM679.8 85.6c0-15.4-12.5-28-28-28H372.1c-15.4 0-28 12.5-28 28 0 15.4 12.5 28 28 28h279.7c15.5 0 28-12.5 28-28z" horiz-adv-x="1024"/><glyph glyph-name="upload" unicode="" d="M654.2 234.3l-.2.1c-.4.3-.4.3-.9.5l-121.5 66.3c-4.2 2.3-8.8 3.4-13.8 3.4h-.2c-4.7 0-9.3-1.2-13.4-3.4L383 234.9c-6.3-3.4-10.9-9.1-12.9-16s-1.2-14.1 2.2-20.4l.1-.1c.3-.5.3-.5.5-.9l.9-1.4c7.8-12.7 24.1-17.1 37.2-10l79.2 43.2V-3.6c0-15.4 12.5-27.9 27.9-27.9h2.8c15.4 0 27.9 12.5 27.9 27.9v231.3l76.2-41.6c13.1-7.2 29.5-2.8 37.2 10l.8 1.3c3.7 6.1 4.9 13.3 3.2 20.3-1.5 6.9-5.8 12.8-12 16.6zm248.4 274.2c-31.5 39.5-75.1 63.7-126.2 69.9-5.9 64.8-33.9 120.3-80.7 160.5-46.4 39.7-106.7 60.7-174.6 60.7-67.8 0-128.2-21-174.4-60.7-46.9-40.2-74.8-95.7-80.8-160.5C158 566.2 79.3 478.4 74.4 364.9c-1.3-30.3 2.7-58.9 12-85.1 9.2-26 23.3-49.1 42-68.6 19.6-20.4 43.5-36.3 71.2-47.1 28.1-11 59.4-16.6 93.1-16.6 15.4 0 27.9 12.5 27.9 27.9s-12.5 27.9-27.9 27.9c-51.9 0-94.8 16.1-123.9 46.5-27.1 28.3-40.4 67.2-38.5 112.6 1.9 45.3 19.2 86.4 48.6 115.8 29.5 29.5 69.9 45.7 113.8 45.7 15.4 0 27.9 12.5 27.9 27.9 0 55.9 19.4 103.8 56.1 138.6 36 34.2 87.3 53.1 144.5 53.1s108.4-18.8 144.5-53.1c36.7-34.8 56.1-82.8 56.1-138.6 0-15.4 12.5-27.9 27.9-27.9 42 0 77.9-15.4 104.1-44.4 25.9-28.8 40.2-70 40.2-115.9 0-45.9-14.3-87.1-40.2-115.9-26.1-29-62.1-44.4-104.1-44.4-15.4 0-27.9-12.5-27.9-27.9s12.5-27.9 27.9-27.9c57.1 0 108.5 22 144.9 61.9 35.7 39.2 55.3 94 55.3 154.3-.1 56-16.4 106-47.3 144.8z" horiz-adv-x="1024"/><glyph glyph-name="thumb" unicode="" d="M534 800.2l10.6-.1c123.7-4 163.3-102.5 121.4-284.8h112.6C864 515.3 933 444.8 933 358c0-17.5-2.8-34.8-8.3-51.2l-50.2-148.3C836 44.4 730.7-32.2 612.3-32.2H376.6c-23.2 0-42 18.8-42 42.1v437.2c0 16 9.4 29.8 23.3 37.6 50.8 28.5 75.8 67.5 84.9 119.3 3.6 20.1 4.5 36.4 5.1 72.5l.2 11.4c1 39.6 3.5 56.7 12.8 74.5 4.4 8.5 10.1 15.5 17.2 21.1 15.3 12.1 37.2 17.6 66.4 16.7H534zM191.2 462.6c30.9 0 56-25.1 56-56V24.7c0-30.9-25.1-56-56-56h-22.1C126-31.3 91 3.7 91 46.8v337.7c0 43.1 35 78.1 78.1 78.1h22.1z" horiz-adv-x="1024"/><glyph glyph-name="video" unicode="" d="M675.5 44.2C298.9-167.3 78.9-44.1 78.9 378.9s210.7 549.2 587.3 337.7 385.9-460.9 9.3-672.4zm-40.2 71.5c317.9 178.5 314.5 347.6-9.3 529.5-320.4 179.9-465.1 95.7-465.1-266.3 0-359.4 151.7-444.5 474.4-263.2zm-74.7 138.4C419.3 174.8 336.9 221 336.9 379.6s79 206 220.2 126.7 144.7-172.9 3.5-252.2zm-40.2 71.5c83.8 47.1 83.6 60.3-3.5 109.2-86.1 48.3-98.1 41.3-98.1-55.2 0-95.1 14.3-103.1 101.6-54z" horiz-adv-x="1024"/><glyph glyph-name="time" unicode="" d="M549.3 404.1h223.8c20.6 0 37.3-16.7 37.3-37.3 0-20.6-16.7-37.3-37.3-37.3H512c-20.6 0-37.3 16.7-37.3 37.3 0 3 .3 5.8 1 8.6-.6 2.8-1 5.6-1 8.6v261.1c0 20.6 16.7 37.3 37.3 37.3 20.6 0 37.3-16.7 37.3-37.3v-241zM512-63.6C264.8-63.6 64.4 136.8 64.4 384S264.8 831.6 512 831.6 959.6 631.2 959.6 384 759.2-63.6 512-63.6zm0 74.6c206 0 373 167 373 373S718 757 512 757 139 590 139 384 306 11 512 11z" horiz-adv-x="1024"/><glyph glyph-name="rightarrow" unicode="" d="M592.9 384.7L310.7 736.8c-20.2 25.2-16.1 61.9 9 82.1 25.2 20.2 61.9 16.1 82.1-9l311.5-388.5c17.1-21.3 17.1-51.6.1-73L401.9-41.8C381.8-67 345-71.1 319.8-51c-25.2 20.1-29.3 56.9-9.2 82.1l282.3 353.6z" horiz-adv-x="1024"/><glyph glyph-name="thumbempty" unicode="" d="M248.6-32.2c-79.7 0-144.3 64.6-144.3 144.3v226.5c0 79.7 64.6 144.3 144.3 144.3h51.2c70.3 24.1 99.2 59 108.5 111.8 3 17.1 3.8 31.4 4.4 63.8.8 49.4 3 68.8 15.2 92.2 18.3 34.9 53.2 51 102.4 49.4 128.8-4.2 175.3-101.3 145.1-266.9h73.3c94.6 0 170.9-77.9 170.9-173.6 0-19.2-3.1-38.2-9.3-56.4l-47-139C823.6 46.8 715-32.3 592.8-32.3H248.6zm279.1 753.7c-21.4.7-27.4-2.1-30.1-7.3-4.2-8-5.7-21.4-6.3-57.1-.6-36.5-1.6-53.6-5.5-76.1-14.5-82.7-65.1-141.7-167.4-174.9l12.7 4.4v-364l261.8-.1c84.8 0 160.7 52.8 192.3 132.8l3.7 10.1 47 139c3.4 10 5.1 20.6 5.1 31.2 0 52.6-41.5 94.9-92.2 94.9H626.6c-25.6 0-44.4 24.1-38.2 48.9 38.5 153.8 15.9 215.7-60.7 218.2zM252.4 404.2h-3.8c-36.2 0-65.6-29.4-65.6-65.6V112c0-36.2 29.4-65.6 65.6-65.6h3.8v357.8z" horiz-adv-x="1024"/><glyph glyph-name="search" unicode="" d="M493.9 800.2c219.9 0 398.2-178.3 398.2-398.2 0-87.1-27.9-167.6-75.4-233.1L909.6 76c24.8-24.8 24.8-64.9 0-89.7-22.9-22.9-58.8-24.6-83.7-5.3l-6 5.3L727 79.2C661.5 31.8 580.9 3.8 493.9 3.8 274 3.9 95.8 182.2 95.8 402.1S274 800.2 493.9 800.2zm0-126.8c-149.8 0-271.3-121.5-271.3-271.3s121.5-271.3 271.3-271.3 271.3 121.5 271.3 271.3-121.4 271.3-271.3 271.3z" horiz-adv-x="1024"/><glyph glyph-name="quit" unicode="" d="M187.9 661.8c0-25.6-20.7-46.3-46.3-46.3s-46.3 20.7-46.3 46.3c0 93.8 76 169.8 169.8 169.8H759c93.8 0 169.8-76 169.8-169.8V106.2c0-93.8-76-169.8-169.8-169.8H265.1c-93.8 0-169.8 76-169.8 169.8 0 25.6 20.7 46.3 46.3 46.3s46.3-20.7 46.3-46.3c0-42.6 34.5-77.2 77.2-77.2H759c42.6 0 77.2 34.5 77.2 77.2v555.6c0 42.6-34.5 77.2-77.2 77.2H265.1c-42.6 0-77.2-34.6-77.2-77.2zm424.2-251.9c1.7-2.5 3.1-5.1 4.3-7.9 7-17.3 3.6-37.2-9.9-50.8L421.3 166.1c-18.1-18.1-47.4-18.1-65.5 0s-18.1 47.4 0 65.5L462 337.7H141.6c-25.6 0-46.3 20.7-46.3 46.3 0 25.6 20.7 46.3 46.3 46.3H462L355.8 536.5c-18.1 18.1-18.1 47.4 0 65.5s47.4 18.1 65.5 0l185.2-185.2c2.2-2.2 4.1-4.5 5.8-7l-.2.1z" horiz-adv-x="1024"/><glyph glyph-name="personalcenter" unicode="" d="M512-63.6C264.8-63.6 64.4 136.8 64.4 384S264.8 831.6 512 831.6 959.6 631.2 959.6 384 759.2-63.6 512-63.6zm0 84c200.8 0 363.6 162.8 363.6 363.6S712.8 747.6 512 747.6 148.4 584.8 148.4 384 311.2 20.4 512 20.4zm74.2 262.4c14.7 17.9 41.2 20.4 59.1 5.7s20.4-41.2 5.7-59.1c-32.4-39.3-83.8-62.6-139.1-62.6-55 0-106.2 23.1-138.7 62.1-14.8 17.8-12.4 44.3 5.4 59.1 17.8 14.8 44.3 12.4 59.1-5.4 16.2-19.5 43.6-31.8 74.1-31.8 30.7-.1 58.2 12.4 74.4 32z" horiz-adv-x="1024"/><glyph glyph-name="qq" unicode="" d="M859.3 270.8c-17.7 57.5-38.1 105.8-69.5 184.9 4.9 207.8-80.7 375.8-277.9 375.8-199.4 0-283.1-171.4-277.7-375.8-31.5-79.2-51.8-127.2-69.5-184.9C127 148.3 139.2 97.6 148.5 96.5c20-2.5 77.7 92.2 77.7 92.2 0-54.8 27.9-126.3 88.5-177.9-29.3-9.1-95-33.5-79.4-60.2 12.6-21.6 217.5-13.8 276.6-7.1 59.1-6.7 264-14.5 276.6 7.1 15.6 26.6-50.2 51.1-79.4 60.2 60.5 51.7 88.5 123.2 88.5 177.9 0 0 57.8-94.7 77.7-92.2 9.5 1.2 21.7 51.9-16 174.3z" horiz-adv-x="1024"/><glyph glyph-name="introduce" unicode="" d="M512 831.6c247.2 0 447.6-200.4 447.6-447.6S759.2-63.6 512-63.6 64.4 136.8 64.4 384 264.8 831.6 512 831.6zm-.6-217.9h-2.2c-59.9 0-105.3-49.6-105.3-108.5v-35.4c0-34.3 15.4-65 40-84.8-72.7-32.1-132.6-106.6-132.6-142.5v-2.4c0-12.8 13.4-24.2 27.8-24.2h342.3c10.3 0 27.8 8 27.8 24.2v2.4c0 35.8-60.5 110.2-132.8 142.3 24.8 19.8 40.3 50.6 40.3 85v35.4c0 58.9-45.4 108.5-105.3 108.5z" horiz-adv-x="1024"/><glyph glyph-name="message" unicode="" d="M207 683.7l260-241.5c23.3-21.6 62.2-21.6 85.5 0l260 241.5H207zm668.7-55.8L609.6 380.7c-55.5-51.5-144.2-51.5-199.7 0l-261.5 243V112.3c0-15.4 12.5-28 28-28h671.4c15.4 0 28 12.5 28 28v515.6zM176.3 767.6h671.4c61.8 0 111.9-50.1 111.9-111.9V112.2C959.6 50.4 909.5.3 847.7.3H176.3C114.5.3 64.4 50.4 64.4 112.2v543.5c0 61.8 50.1 111.9 111.9 111.9z" horiz-adv-x="1024"/><glyph glyph-name="eye" unicode="" d="M512.1 727.8c158.5 0 304.8-79.9 405-214.7 56.1-75 56.1-183.6 0-258.5-101-134.9-246.7-214.7-405-214.7-158 0-304.2 79.9-405 214.7-56.1 75-56.1 183.6 0 258.5 101 135 246.7 214.7 405 214.7zm0-68.8c-139.7 0-264.2-72.5-350-187.1-37.8-50.5-37.8-125.6 0-176.1 85.7-114.6 210.8-187.1 350-187.1 139.7 0 264.2 72.5 350 187.1 37.8 50.5 37.8 125.6 0 176.1C776.8 586.5 651.8 659 512.1 659zm.8-91.5c104.5 0 189.6-82.1 189.6-183s-85-183-189.6-183-189.6 82.1-189.6 183 85.1 183 189.6 183zm0-68.8c-67.1 0-120.8-51.9-120.8-114.2 0-62.4 53.7-114.2 120.8-114.2s120.8 51.9 120.8 114.2c0 62.4-53.7 114.2-120.8 114.2z" horiz-adv-x="1024"/><glyph glyph-name="identity" unicode="" d="M553.9 784.3l.9-.9 87.8-91.5 126.9.4c30.4.1 55.1-24.5 55.2-54.8v-1.3l-2.6-126.8 90-89.4c21.5-21.4 21.7-56.2.2-77.8l-.9-.9-91.5-87.8.4-126.9c.1-30.4-24.5-55.1-54.8-55.2h-1.3L637.4 74 548-16c-21.4-21.5-56.2-21.7-77.8-.2l-.9.9-87.8 91.5-126.9-.4c-30.4-.1-55.1 24.5-55.2 54.8v1.3l2.6 126.8-90 89.4c-21.5 21.4-21.7 56.2-.2 77.8l.9.9 91.5 87.8-.4 126.9c-.1 30.4 24.5 55.1 54.8 55.2h1.3l126.8-2.6 89.4 90c21.4 21.5 56.3 21.6 77.8.2zm96.3-283.1L469.7 319.9 388 404.8c-16.8 17.5-44.7 18.1-62.2 1.2-17.5-16.8-18.1-44.7-1.2-62.2l112.9-117.3c17.1-17.8 45.5-18 62.9-.5l212.2 213.2c17.1 17.2 17.1 45.1-.1 62.2-17.3 17.1-45.2 17-62.3-.2z" horiz-adv-x="1024"/><glyph glyph-name="history" unicode="" d="M554 408.8h153.8c23.2 0 42-18.8 42-42s-18.8-42-42-42H512c-23.2 0-42 18.8-42 42 0 2.9.3 5.8.9 8.6-.6 2.8-.9 5.6-.9 8.6v195.8c0 23.2 18.8 42 42 42s42-18.8 42-42v-171zM512-63.6C264.8-63.6 64.4 136.8 64.4 384S264.8 831.6 512 831.6 959.6 631.2 959.6 384 759.2-63.6 512-63.6zm0 84c200.8 0 363.6 162.8 363.6 363.6S712.8 747.6 512 747.6 148.4 584.8 148.4 384 311.2 20.4 512 20.4z" horiz-adv-x="1024"/><glyph glyph-name="emoji" unicode="" d="M512 831.6c247.2 0 447.6-200.4 447.6-447.6S759.2-63.6 512-63.6 64.4 136.8 64.4 384 264.8 831.6 512 831.6zm0-74.6c-206 0-373-167-373-373S306 11 512 11s373 167 373 373-167 373-373 373zm223.8-340.7c17.9 0 32.3-14.5 32.3-32.3 0-141.4-114.7-256.1-256.1-256.1S255.9 242.6 255.9 384c0 17.9 14.5 32.3 32.3 32.3s32.3-14.5 32.3-32.3c0-105.7 85.7-191.5 191.5-191.5S703.5 278.3 703.5 384c0 17.9 14.4 32.3 32.3 32.3zM398.6 547.2c27.5 0 49.7-22.3 49.7-49.7s-22.3-49.7-49.7-49.7-49.7 22.3-49.7 49.7 22.2 49.7 49.7 49.7zm244.7 0c27.5 0 49.7-22.3 49.7-49.7s-22.3-49.7-49.7-49.7-49.7 22.3-49.7 49.7 22.3 49.7 49.7 49.7z" horiz-adv-x="1024"/><glyph glyph-name="comment" unicode="" d="M160.7 122c1.4 1.2-12.9-11.3-16.6-14.7-7.3-6.7-12.5-12.3-16.7-18.5-19.7-28.6-7.4-61.5 27.3-71.8C271.5-17.8 399.2-32 512-32c229.7 0 416 186.2 416 416S741.7 800 512 800 96 613.7 96 384c0-89.9 28.6-175.5 80.7-246.3-3.2-3.7-8.4-8.9-16-15.7zm84.9-7.5c8.6 20 6.8 41.5-7 59.6-46 59.8-71.3 132.9-71.3 209.9 0 190.4 154.3 344.7 344.7 344.7S856.7 574.4 856.7 384 702.4 39.3 512 39.3c-93.8 0-199 10.5-297.5 35.2 15.6 14.5 25 25.7 31.1 40z" horiz-adv-x="1024"/><glyph glyph-name="downarrow" unicode="" d="M512.7 311.3l316 253.4c22.6 18.1 55.6 14.5 73.7-8.1s14.5-55.6-8.1-73.7L545.5 203.3c-19.1-15.3-46.3-15.4-65.5-.1L129.8 482.8c-22.6 18.1-26.3 51.1-8.3 73.7 18.1 22.6 51.1 26.3 73.7 8.3l317.5-253.5z" horiz-adv-x="1024"/><glyph glyph-name="collect" unicode="" d="M388 747.4l-71.4-121.6c-.6-1-1.6-1.7-2.7-2l-137.6-30.7c-23.7-5.3-45.6-16.4-63.8-32.5-59.6-52.5-65.4-143.4-12.9-203l93.7-106.3c.8-.9 1.1-2 1-3.2l-13.5-141c-2.3-24.3 1.6-48.8 11.3-71.2 31.7-72.8 116.5-106.1 189.3-74.4l128.9 56.2c1.1.5 2.3.5 3.4 0l128.9-56.2c22.4-9.8 46.9-13.7 71.2-11.3 79.1 7.6 137.1 77.8 129.5 156.9l-13.5 141c-.1 1.2.3 2.3 1 3.2l93.7 106.3c16 18.2 27.2 40.1 32.5 63.8 17.3 77.5-31.6 154.4-109.1 171.7l-137.6 30.7c-1.1.3-2.1 1-2.7 2L636 747.4c-12.4 21.1-30 38.8-51.2 51.2-68.5 40.2-156.6 17.3-196.8-51.2zm156.1-18.1c9.3-5.5 17.1-13.2 22.6-22.6l71.4-121.6c11.9-20.2 31.6-34.6 54.5-39.7l137.6-30.7c34.2-7.6 55.8-41.5 48.1-75.7-2.3-10.4-7.3-20.1-14.3-28.1l-93.7-106.3c-15.5-17.5-23-40.7-20.7-64l13.5-141c3.3-34.9-22.2-65.9-57.1-69.2-10.7-1-21.5.7-31.4 5L545.7 91.6c-21.6 9.4-46.1 9.4-67.6 0L349.2 35.4c-32.1-14-69.5.7-83.5 32.8-4.3 9.9-6 20.7-5 31.4l13.5 141c2.2 23.3-5.3 46.4-20.7 64l-93.7 106.3c-23.2 26.3-20.6 66.4 5.7 89.6 8 7.1 17.7 12 28.1 14.3l137.6 30.7c22.9 5.1 42.7 19.5 54.5 39.7l71.4 121.6c17.9 30.1 56.8 40.2 87 22.5z" horiz-adv-x="1024"/><glyph glyph-name="zhuanlan" unicode="" d="M731.6 831.6c101 0 183-81.9 183-183V119.4c0-101-81.9-183-183-183H292.4c-101 0-183 81.9-183 183v529.2c0 101 81.9 183 183 183h439.2zm0-84.5H292.4c-54.4 0-98.5-44.1-98.5-98.5V119.4c0-54.4 44.1-98.5 98.5-98.5h439.1c54.4 0 98.5 44.1 98.5 98.5v529.2c.1 54.4-44 98.5-98.4 98.5zm-23.1-551.7c30.6 0 48.3-18.9 48.3-42.2 0-21.4-13.8-39-40.8-41.8l-7.5-.4H325.3c-30.6 0-48.1 18.9-48.1 42.2 0 21.4 13.6 39 40.6 41.8l7.5.4h383.2zm6.1 140c23.3 0 42.2-18.9 42.2-42.2 0-21.4-15.9-39-36.5-41.8l-5.7-.4H591.9c-23.3 0-42.2 18.9-42.2 42.2 0 21.4 15.9 39 36.5 41.8l5.7.4h122.7zM333.5 666.6c10.6 0 21-3 29.9-8.6l174-109.3c26.3-16.5 34.3-51.3 17.7-77.6-4.5-7.2-10.6-13.2-17.7-17.7L363.5 344c-26.3-16.5-61.1-8.6-77.6 17.7-5.6 9-8.6 19.3-8.6 29.9v218.7c-.1 31.1 25.1 56.3 56.2 56.3zm28.2-107.2V442.7l92.9 58.3-92.9 58.4z" horiz-adv-x="1024"/><glyph glyph-name="more" unicode="" d="M252 384c0-43.1-34.9-78-78-78s-78 34.9-78 78 34.9 78 78 78 78-34.9 78-78zm338 0c0-43.1-34.9-78-78-78s-78 34.9-78 78 34.9 78 78 78 78-34.9 78-78zm338 0c0-43.1-34.9-78-78-78s-78 34.9-78 78 34.9 78 78 78 78-34.9 78-78z" horiz-adv-x="1024"/><glyph glyph-name="uncollect" unicode="" d="M889.6 2.3L166.7 679.1c-16 15-41.1 14.1-56.1-1.8s-14.1-41.1 1.8-56.1L835.3-55.6c7.6-7.2 17.4-10.7 27.1-10.7 10.6 0 21.1 4.2 29 12.6 15.1 15.9 14.2 41-1.8 56zm-42.1 589.8l-137.7 30.6c-1.4.3-2.7 1.2-3.4 2.5L635 746.8c-12.3 21-29.8 38.5-50.8 50.8-67.9 39.9-155.4 17.2-195.3-50.8l-71.4-121.6c-.7-1.3-2-2.2-3.4-2.5l-7.9-1.7 61.5-57.6c7.2 6 13.3 13.3 18.2 21.6l71.4 121.6c17.7 30.2 56.6 40.3 86.8 22.6 9.4-5.5 17.1-13.3 22.6-22.6L638.1 585c11.8-20.2 31.6-34.6 54.5-39.7l137.7-30.6c34.2-7.6 55.7-41.5 48.1-75.7-2.3-10.4-7.2-20.1-14.3-28.1l-93.6-106.3c-15.4-17.6-22.9-40.7-20.7-64l3.6-38.2 87.5-81.9-12.2 127.6c-.1 1.5.3 2.9 1.3 4l93.6 106.3c15.9 18 27 39.8 32.2 63.3 17.1 77-31.3 153.2-108.3 170.4zM545.7 91.5c-21.5 9.4-46 9.4-67.6 0L349.2 35.3c-32.1-14-69.5.7-83.5 32.8-4.3 9.9-6 20.7-5 31.4l13.5 141c2.3 23.3-5.2 46.5-20.7 64l-93.6 106.3c-21.6 24.5-20.9 61.1.7 84.7l4.3 4.2-58 54.3c-53.3-52.8-56.8-138.6-6.5-195.6L194 252c1-1.1 1.4-2.5 1.3-4l-13.5-141c-2.4-24.1 1.5-48.4 11.2-70.6 31.5-72.3 115.6-105.3 187.9-73.8l128.9 56.2c1.3.6 2.9.6 4.2 0l128.9-56.2c22.2-9.6 46.5-13.5 70.6-11.2 10.6 1.1 20.7 3.2 30.4 6.3L649 46.5l-103.3 45z" horiz-adv-x="1024"/><glyph glyph-name="collected" unicode="" d="M635 748.6L706.4 627c.6-1 1.6-1.7 2.7-2l137.6-30.7c77.5-17.3 126.4-94.2 109.1-171.7-5.3-23.7-16.4-45.6-32.5-63.8l-93.7-106.3c-.8-.9-1.1-2-1-3.2l13.5-141C849.7 29.2 791.7-41 712.6-48.6c-24.3-2.3-48.8 1.6-71.2 11.3L512.5 18.9c-1.1.5-2.3.5-3.4 0L380.2-37.3C307.4-69 222.6-35.7 190.9 37.1c-9.8 22.4-13.7 46.9-11.3 71.2l13.5 141c.1 1.2-.3 2.3-1 3.2L98.5 358.8c-52.5 59.6-46.8 150.5 12.9 203 18.2 16 40.1 27.2 63.8 32.5L312.8 625c1.1.3 2.1 1 2.7 2L387 748.6c40.2 68.5 128.3 91.4 196.8 51.1 21.2-12.4 38.8-30 51.2-51.1z" horiz-adv-x="1024"/><glyph glyph-name="guanzhu" unicode="" d="M512 217c-92.1 0-167 74.9-167 167s74.9 167 167 167 167-74.9 167-167-74.9-167-167-167zm0 277.3c-60.8 0-110.3-49.5-110.3-110.3S451.2 273.7 512 273.7 622.3 323.2 622.3 384 572.8 494.3 512 494.3zm184.9-347.5c-7.8 0-15.6 3.2-21.2 9.5-10.4 11.7-9.3 29.6 2.4 40 52.7 46.7 82.9 115 82.9 187.3 0 72.5-30.2 141-83 188-11.7 10.4-12.7 28.4-2.3 40 10.4 11.7 28.4 12.7 40 2.3 64.8-57.7 101.9-141.7 101.9-230.4 0-88.5-37.2-172.2-102-229.7-5.3-4.6-12-7-18.7-7zm-369.8 0c-6.7 0-13.5 2.4-18.9 7.2-64.7 58.1-101.9 141.8-101.9 229.6 0 45.3 9 88.5 26.8 128.4 17.6 39.6 43 74 75.4 102.2 11.8 10.3 29.7 9.1 40-2.8 10.3-11.8 9.1-29.7-2.8-40-26.1-22.7-46.6-50.5-60.8-82.5-14.5-32.6-21.9-68-21.9-105.3 0-36.2 7.6-71.2 22.5-104.3 14.3-31.6 35.2-60.4 60.5-83.1 11.7-10.5 12.6-28.4 2.2-40.1-5.6-6.1-13.3-9.3-21.1-9.3zm-46.2-137c-5.4 0-10.9 1.6-15.8 4.8C141.5 97.4 67.6 235.7 67.6 384.5c0 74.5 18.7 148 53.9 212.5 34.2 62.5 83.8 116.6 143.6 156.4 13 8.7 30.6 5.2 39.3-7.9 8.7-13 5.2-30.6-7.9-39.3-52.1-34.7-95.4-81.9-125.3-136.4-30.7-56.2-47-120.3-47-185.3 0-129.8 64.4-250.5 172.3-322.8 13-8.7 16.5-26.3 7.8-39.3C299 14.2 290 9.8 280.9 9.8zm462.4.5c-9.1 0-18.1 4.4-23.6 12.6-8.7 13-5.2 30.6 7.8 39.4C835.3 134.5 899.6 255 899.6 384.5c0 65.1-16.2 129.1-47 185.3-29.8 54.5-73.1 101.6-125.3 136.4-13 8.7-16.6 26.3-7.9 39.3 8.7 13 26.3 16.6 39.3 7.9 59.8-39.8 109.4-93.8 143.6-156.4 35.3-64.5 53.9-138 53.9-212.5 0-148.5-73.8-286.6-197.3-369.4-4.7-3.2-10.2-4.8-15.6-4.8z" horiz-adv-x="1024"/><glyph glyph-name="arrow" unicode="" d="M298.7 288.1c-9.4 0-18.7 4.1-25 12-11 13.8-8.8 33.9 5 45L492.4 516c11.7 9.4 28.3 9.3 40 0l212.9-171c13.8-11.1 16-31.2 4.9-45s-31.2-16-45-4.9L512.4 450 318.7 295.1c-5.9-4.8-13-7-20-7z" horiz-adv-x="1024"/><glyph glyph-name="up" unicode="" d="M659.6 476.4c-3.3-6.7-10.7-10.7-19.5-10.7H537V180.4c0-11.2-11.1-20.4-24.9-20.4-13.8 0-24.9 9.1-24.9 20.4v285.3H383.8c-8.7 0-16.1 4-19.5 10.7-3.3 6.7-1.6 14 4.6 19.1l128.2 107.2c4.1 3.4 9.1 5.2 14.9 5.2 5.8 0 10.8-1.7 14.9-5.2l128.2-107.2c6.1-5.1 7.9-12.3 4.5-19.1z" horiz-adv-x="1024"/><glyph glyph-name="creator" unicode="" d="M729.088-29.696H711.68c-108.544 0-196.608 88.064-196.608 196.608v17.408c0 108.544 88.064 196.608 196.608 196.608h17.408c108.544 0 196.608-88.064 196.608-196.608v-17.408c0-108.544-88.064-196.608-196.608-196.608zM711.68 301.056c-64.512 0-117.248-52.736-117.248-117.248V166.4c0-64.512 52.736-117.248 117.248-117.248h17.408c64.512 0 117.248 52.736 117.248 117.248v17.408c0 64.512-52.736 117.248-117.248 117.248H711.68zM347.136-12.288h-104.96c-79.36 0-143.872 64.512-143.872 143.872v104.448c0 79.36 64.512 143.872 143.872 143.872h104.448c79.36 0 143.872-64.512 143.872-143.872V131.584c.512-79.36-64.512-143.872-143.36-143.872zm-104.96 313.344c-35.328 0-64.512-29.184-64.512-64.512V132.096c0-35.328 29.184-64.512 64.512-64.512h104.448c35.328 0 64.512 29.184 64.512 64.512v104.448c0 35.328-29.184 64.512-64.512 64.512H242.176zm522.24 103.936H659.968c-79.36 0-143.872 64.512-143.872 143.872v104.96c0 79.36 64.512 143.872 143.872 143.872h104.448c79.36 0 143.872-64.512 143.872-143.872V549.376c0-79.36-64.512-144.384-143.872-144.384zm-104.96 313.344c-35.328 0-64.512-29.184-64.512-64.512V549.376c0-35.328 29.184-64.512 64.512-64.512h104.448c35.328 0 64.512 29.184 64.512 64.512v104.448c0 35.328-29.184 64.512-64.512 64.512H659.456zm-312.32-313.344h-104.96c-79.36 0-143.872 64.512-143.872 143.872v104.96c0 79.36 64.512 143.872 143.872 143.872h104.448c79.36 0 143.872-64.512 143.872-143.872V549.376c.512-79.36-64.512-144.384-143.36-144.384zm-104.96 313.344c-35.328 0-64.512-29.184-64.512-64.512V549.376c0-35.328 29.184-64.512 64.512-64.512h104.448c35.328 0 64.512 29.184 64.512 64.512v104.448c0 35.328-29.184 64.512-64.512 64.512H242.176z" horiz-adv-x="1024"/><glyph glyph-name="update" unicode="" d="M263.585 194.881c-8.4 0-16.6 3.3-22.6 9.4-6.9 6.9-10.2 16.5-9.2 26.1l12.5 112.8c.8 7.3 4.1 14 9.2 19.2l330.1 328.5c12.5 12.4 32.7 12.4 45.2 0l100.8-100.5c6-6 9.4-14.2 9.4-22.7s-3.4-16.7-9.4-22.7l-330.2-328.5c-5.1-5.1-11.9-8.3-19.1-9.1l-113.3-12.3c-1.1-.1-2.2-.2-3.4-.2zm43 130.1l-6.9-62 62.5 6.8 299.4 297.9-55.5 55.3-299.5-298zm461.1-236h-511.9c-17.7 0-32 14.3-32 32s14.3 32 32 32h511.9c17.7 0 32-14.3 32-32s-14.3-32-32-32z" horiz-adv-x="1024"/><glyph glyph-name="chart" unicode="" d="M529.6 132.3c-21.2 0-38.4 17.2-38.4 38.4v426.6c0 21.2 17.2 38.4 38.4 38.4s38.4-17.2 38.4-38.4V170.8c0-21.3-17.2-38.5-38.4-38.5zm-209.5 0c-21.2 0-38.4 17.2-38.4 38.4V446c0 21.2 17.2 38.4 38.4 38.4s38.4-17.2 38.4-38.4V170.7c-.1-21.2-17.2-38.4-38.4-38.4zm419 .6c-21.2 0-38.4 17.2-38.4 38.4v170c0 21.2 17.2 38.4 38.4 38.4s38.4-17.2 38.4-38.4V171.2c0-21.1-17.2-38.3-38.4-38.3z" horiz-adv-x="1024"/><glyph glyph-name="down" unicode="" d="M655.1 272.4L526.9 165.2c-4.1-3.5-9.1-5.2-14.9-5.2-5.8 0-10.8 1.8-14.9 5.2L368.9 272.4c-6.2 5.1-7.9 12.4-4.6 19.1 3.4 6.7 10.8 10.7 19.5 10.7h103.4v285.3c0 11.3 11.1 20.4 24.9 20.4 13.8 0 24.9-9.2 24.9-20.4V302.2h103.1c8.8 0 16.2-4 19.5-10.7 3.4-6.8 1.6-14-4.5-19.1z" horiz-adv-x="1024"/><glyph glyph-name="hold" unicode="" d="M347.8 418.8h328.5c19.2 0 34.8-15.6 34.8-34.8 0-19.2-15.6-34.8-34.8-34.8H347.8c-19.2 0-34.8 15.6-34.8 34.8-.1 19.2 15.5 34.8 34.8 34.8z" horiz-adv-x="1024"/><glyph glyph-name="1" unicode="" d="M575.5 87.5l82.9 593-277.5-39L365.6 535l79.8 11.3-64.5-458.8z" horiz-adv-x="1024"/><glyph glyph-name="7" unicode="" d="M514.6 92.2l282.5 486.3 13.3 97.3H227.9l-14.3-97.3h385.9L321.1 92.2z" horiz-adv-x="1024"/><glyph glyph-name="more1" unicode="" d="M512 597.3c-35.3 0-64 28.6-64 64s28.6 64 64 64 64-28.6 64-64-28.7-64-64-64zm0-277.3c-35.3 0-64 28.6-64 64s28.6 64 64 64 64-28.6 64-64-28.7-64-64-64zm0-277.3c-35.3 0-64 28.6-64 64 0 35.3 28.6 64 64 64s64-28.6 64-64c0-35.3-28.7-64-64-64z" horiz-adv-x="1024"/><glyph glyph-name="3" unicode="" d="M693.2 92.7c19.1 0 36.3 6.7 51.7 20 15.4 13.3 24.4 29.9 27.1 49.7l72.7 512.9H261.2L247.9 579h389l-19.5-136.2H267.3L254 345.6h350.1L581.6 190h-388l-14.3-97.3h513.9z" horiz-adv-x="1024"/><glyph glyph-name="share" unicode="" d="M448.1 580.2c0 65 66.7 102.6 115.5 67.7l4.8-3.7L802.9 448c36.9-30.9 38.6-90 5-123.4l-5-4.6-234.5-196.3c-47.5-39.7-115.8-5.5-120.1 57.6l-.2 6.4v43.9c-13.9 2-28.2 3-42.7 3-71.5 0-137.2-25.2-188.6-67.1-15.8 33.2-24.7 70.5-24.7 109.8 0 138.1 109.4 250.7 246.3 255.8l9.7.2v46.9z" horiz-adv-x="1024"/><glyph glyph-name="change" unicode="" d="M763.3 642.3l3.7-3.3c141.6-141.6 141.6-371.3 0-512.9C675.2 34.3 543.1-.4 419.7 31.4c-22.8 5.9-36.5 29.2-30.7 52s29.2 36.5 52 30.7c94.5-24.4 195.4 2.2 265.7 72.4 98.1 98.1 107.3 251.3 27.9 359.8l-45-45c-16.7-16.7-43.7-16.7-60.3 0-15.5 15.5-16.6 39.9-3.3 56.6l3.3 3.7 77.4 77.4c15.4 15.4 39.8 16.6 56.6 3.3zm-158.9 94.4c22.8-5.9 36.5-29.2 30.7-52-5.9-22.8-29.2-36.5-52-30.7-94.5 24.4-195.4-2.2-265.7-72.4-98.1-98.1-107.3-251.3-27.9-359.8l45 45c16.7 16.7 43.7 16.7 60.3 0 15.5-15.5 16.6-39.9 3.3-56.6l-3.3-3.7-77.4-77.5c-15.5-15.5-39.9-16.6-56.6-3.3L257 129c-141.6 141.6-141.6 371.3 0 512.9 91.8 91.9 223.9 126.6 347.4 94.8z" horiz-adv-x="1024"/><glyph glyph-name="4" unicode="" d="M721.9 92.7l16.4 116.7h77.8l13.4 97.3h-77.9l52.3 368.6H570.4l33.8-37.8-47.1-330.8H405.5L512 675.3H288.8l22.5-24.5-103.4-344.1-13.4-97.3h349.2L527.4 92.7z" horiz-adv-x="1024"/><glyph glyph-name="phone" unicode="" d="M678.4 691.2c58.9 0 106.7-47.8 106.7-106.7V183.4c0-58.9-47.8-106.7-106.7-106.7H345.6c-58.9 0-106.7 47.8-106.7 106.7v401.1c0 58.9 47.8 106.7 106.7 106.7h332.8zm-59.7-424.5H405.3l-4.3-.3c-15.6-2.1-27.7-15.5-27.7-31.7s12-29.6 27.7-31.7l4.3-.3h213.3l4.3.3c15.6 2.1 27.7 15.5 27.7 31.7s-12 29.6-27.7 31.7l-4.2.3z" horiz-adv-x="1024"/><glyph glyph-name="8" unicode="" d="M692.2 92.1c19.8 0 37.4 6.7 52.7 20 15.4 13.3 24.4 29.9 27.1 49.7l72.7 514.1h-514c-19.1 0-36.4-6.8-51.7-20.5-15.4-13.7-24.7-30.4-28.2-50.2l-71.7-513h513.1zm-74.7 350.3H422.9l19.5 136.2H637l-19.5-136.2zm-35.9-253H387.1l22.5 155.7h194.6l-22.6-155.7z" horiz-adv-x="1024"/><glyph glyph-name="collect1" unicode="" d="M556.1 644.3l57.6-98.1c9.6-16.3 25.5-27.9 44-32l111-24.7c27.6-6.2 45-33.5 38.8-61.1-1.9-8.4-5.8-16.2-11.6-22.7l-75.5-85.8C708 305.7 702 287 703.8 268.3l10.9-113.8c2.7-28.1-17.9-53.1-46.1-55.8-8.6-.8-17.4.6-25.3 4l-104 45.3c-17.4 7.6-37.2 7.6-54.5 0l-104-45.3c-25.9-11.3-56.1.6-67.4 26.5-3.5 8-4.9 16.7-4 25.3l10.9 113.8c1.8 18.8-4.3 37.5-16.7 51.6L228 405.6c-18.7 21.2-16.6 53.6 4.6 72.2 6.5 5.7 14.3 9.7 22.7 11.6l111 24.7c18.5 4.1 34.4 15.7 44 32l57.6 98.1c14.3 24.4 45.7 32.5 70.1 18.2 7.4-4.3 13.7-10.6 18.1-18.1z" horiz-adv-x="1024"/><glyph glyph-name="9" unicode="" d="M693.3 92.7c19.1 0 36.4 6.7 51.7 20 15.4 13.3 24.4 29.9 27.1 49.7l72.7 513H261.1l-51.2-368.7H598L581.6 190H194.5l-15.4-97.3h514.2zM612.4 404H416.8l25.6 175.1H637L612.4 404z" horiz-adv-x="1024"/><glyph glyph-name="6" unicode="" d="M759.1 92.7l52.2 378.8h-388L438.7 579h388l13.3 96.2H257.5l-72.7-512.9c-2.7-19.8 1.7-36.3 13.3-49.7 11.6-13.3 27.3-20 47.1-20h513.9zM577.9 190H383.4L410 374.3h193.5L577.9 190z" horiz-adv-x="1024"/><glyph glyph-name="10" unicode="" d="M240.4 87.6l82.9 592.8-277.4-38.9L30.5 535l79.9 11.3L45.9 87.6h194.5zm601.6 0c19.8 0 37.2 6.7 52.2 20s24.2 29.9 27.6 49.7l71.7 512.9H480.6c-19.8 0-37.4-6.7-52.7-20-15.4-13.3-24.4-29.9-27.1-49.7L329.1 87.6H842zm-106.1 97.3H542.4l55.3 389h193.5l-55.3-389z" horiz-adv-x="1024"/><glyph glyph-name="5" unicode="" d="M692.7 93.8c19.8 0 37.2 6.7 52.2 20s24.2 29.9 27.6 49.7l4.1 27.6 37.9 272.3h-389L442.9 580h388l13.3 94.2H222.8l33.8-34.8-38.9-273.3h389L581.1 191H232l-33.8 38.9-18.4-136.2h512.9z" horiz-adv-x="1024"/><glyph glyph-name="comment1" unicode="" d="M393.7 684.4h236.6c66.6 0 90.7-6.9 115-19.9 24.3-13 43.4-32.1 56.4-56.4 13-24.3 19.9-48.5 19.9-115V359.8c0-62.6-6.9-87.4-19.9-111.7-13-24.3-32.1-43.4-56.4-56.4-24.3-13-49.1-19.9-111.7-19.9h-37.9l-127-84.5c-9.8-6.5-23-3.9-29.6 5.9-2.3 3.5-3.6 7.6-3.6 11.8v66.8h-42.3c-65.9 0-90.2 6.9-114.5 19.9-24.3 13-43.4 32.1-56.4 56.4s-19.9 48.6-19.9 114.5v130.5c0 66.6 6.9 90.7 19.9 115 13 24.3 32.1 43.4 56.4 56.4 24.3 13 48.5 19.9 115 19.9z" horiz-adv-x="1024"/><glyph glyph-name="2" unicode="" d="M758.1 92.2l19.5 136.2-44-38.9H363.9l18.4 136.2h408.5L840 675.8H257.5l-24.6-175.1h194.5l9.2 77.8h195.5l-22.5-155.6h-388l-36.9-261.1c-2.7-19.8 1.7-36.3 13.3-49.7 11.6-13.3 27.3-20 47.1-20h513z" horiz-adv-x="1024"/><glyph glyph-name="like" unicode="" d="M321.9 464.5l-.1-395h-38.2c-39.2 0-70.9 32.2-70.9 71.2v250.7c0 37.3 28.5 67.9 64.5 71l9.5.3 15.6-.1c7.1 0 13.6.7 19.6 1.9zm255.2 97.1l-14.9-67-2.3-9.5h138.9c76.7 0 125.7-60.4 109.2-135.5L776.4 205c-16.4-74.8-92-135.5-168.6-135.5H361.5v413.7c9.3 7.6 16.8 16.3 23.1 24.6 15.7 20.6 26.3 39.6 33.9 55.8l5.7 13.2 4.5 11.6 5.2 14.2c1.9 5.1 3.5 10.1 5 15.1l7.9 28.2 4 12.6c6.4 18.1 15.3 31.8 35 37.5 37.5 10.9 117.5-10.7 91.3-134.4z" horiz-adv-x="1024"/><glyph glyph-name="hot" unicode="" d="M509.7 26.7c-80.1 0-154.7 26.5-212.9 76.1-63.9 54.5-102.5 132.7-108.9 220.4-.1 1.5-.2 3-.3 4.7-5.7 84.8 36.3 181.6 62 231.9 3.8 7.5 7.5 13.2 11.7 17.8 12.5 13.9 26.6 15.2 33.9 14.8 7.2-.5 20.7-3.4 31.2-18.2 3.5-4.9 6.4-10.8 9.2-18.4 3.2-8.7 9.4-22.9 15.9-36.6 13.9 21.4 28.4 40.2 41.9 57.7 33.1 42.8 56.9 73.8 56.9 118.4 0 30.5 15.6 43.5 24.9 48.6 15.3 8.3 33.7 6.9 50.4-4 39.6-25.6 77.6-69.4 107-123.1 15.1-27.6 26.8-55.8 34.6-83.2 6.3 14 10.5 28.3 13.8 39.4 2 6.8 3.7 12.6 5.6 17.6 5.7 14.9 15 24.1 27.7 27.6 12.5 3.4 25.7 0 35.3-9.1 14.7-13.9 42.6-48 65.1-120.8 16.7-54.1 24.4-111.2 21.5-160.8-2.2-38-10.8-74.6-25.6-108.9-14.4-33.3-34.2-63.6-59-90-49.4-52.7-116.4-87.2-188.9-97.3-6-1.3-12.6-2.2-20.6-3h-.2c-10.7-1.1-21.5-1.6-32.2-1.6zM257.4 329.8c0-.2 0-.5.1-.7 0-.2 0-.5.1-.7 4.9-69 34.9-130.2 84.5-172.5 51.6-44 120.4-64.7 193.8-58.3 5.5.5 9.8 1.1 13.1 1.9 1 .2 2 .4 3.1.6 57.1 7.7 109.9 34.6 148.7 76 19.3 20.6 34.7 44.1 45.9 70 11.6 26.8 18.3 55.4 20 85.2 2.4 40.9-4.4 90.5-18.5 136.2-4.8 15.7-10.1 29.4-15.3 41.2-2.5-5.9-5.4-11.9-8.6-18-16.2-30-37.8-52-64.4-65.3-10.8-5.5-23.7-4.9-34 1.5s-16.6 17.6-16.6 29.7c0 36.6-13.7 82.7-37.7 126.5-16 29.2-35.1 55-55 74.5-9.9-48.5-38.2-85.2-67.8-123.5-22.7-29.4-46.2-59.9-64.3-99.3-5.3-11.5-16.3-19.2-28.9-20.3-12.6-1-24.8 4.8-31.8 15.3l-2.6 3.9c-6.1 6.4-14.5 18.4-28.6 46.9-.5.9-.9 1.8-1.4 2.8-6.9-16.4-13.7-34.7-19.5-54-11.4-37.9-16.2-70.7-14.3-97.6v-2zm0-.3zm262.9 367z" horiz-adv-x="1024"/></font>
</defs>
</svg>
